<?xml version="1.0" encoding="UTF-8"?>
<svg id="Camada_2" data-name="Camada 2" xmlns="http://www.w3.org/2000/svg" viewBox="0 0 548.2 266.08">
  <defs>
    <style>
      .cls-1, .cls-2, .cls-3 {
        stroke-width: 0px;
      }

      .cls-2 {
        fill: #1d1d1b;
      }

      .cls-3 {
        fill: #fff;
      }
    </style>
  </defs>
  <g id="Camada_1-2" data-name="Camada 1">
    <g>
      <path class="cls-2" d="m43,0l31.29,82.95h.38L104.27,0h41.41v120.62h-27.55V35.14h-.38l-32.79,85.48h-22.67L29.5,35.98h-.37v84.64H1.58V0h41.41Z"/>
      <path class="cls-2" d="m167.61,60.14c.38-5.63,1.94-10.31,4.68-14.02,2.75-3.72,6.25-6.7,10.49-8.95,4.25-2.25,9.02-3.86,14.34-4.81,5.31-.96,10.65-1.44,16.02-1.44,4.87,0,9.81.31,14.8.93,5,.62,9.56,1.83,13.68,3.63,4.12,1.8,7.5,4.31,10.12,7.52,2.62,3.21,3.94,7.46,3.94,12.75v45.44c0,3.94.25,7.72.75,11.32.5,3.61,1.37,6.31,2.62,8.11h-26.98c-.5-1.35-.91-2.73-1.22-4.14-.31-1.41-.53-2.84-.66-4.31-4.25,3.94-9.25,6.7-14.99,8.28-5.75,1.58-11.62,2.37-17.61,2.37-4.62,0-8.93-.51-12.93-1.52-4-1.01-7.5-2.59-10.49-4.73-3-2.14-5.34-4.84-7.03-8.11-1.69-3.27-2.53-7.15-2.53-11.66,0-4.95.97-9.04,2.9-12.25,1.94-3.21,4.43-5.77,7.5-7.69,3.06-1.91,6.56-3.35,10.49-4.31,3.94-.96,7.9-1.72,11.9-2.28,4-.56,7.93-1.01,11.81-1.35,3.87-.34,7.31-.84,10.31-1.52,3-.68,5.37-1.66,7.12-2.96,1.75-1.29,2.56-3.18,2.44-5.66,0-2.59-.47-4.65-1.41-6.17s-2.19-2.7-3.75-3.55c-1.56-.84-3.37-1.41-5.43-1.69-2.06-.28-4.28-.42-6.65-.42-5.25,0-9.37,1.01-12.37,3.04-3,2.03-4.75,5.41-5.25,10.14h-26.61Zm61.46,17.74c-1.12.9-2.53,1.6-4.22,2.11s-3.5.93-5.43,1.27c-1.94.34-3.97.62-6.09.84-2.13.23-4.25.51-6.37.84-2,.34-3.97.79-5.9,1.35-1.94.56-3.62,1.33-5.06,2.28-1.44.96-2.59,2.17-3.47,3.63-.88,1.46-1.31,3.32-1.31,5.57s.44,3.94,1.31,5.41c.87,1.47,2.06,2.62,3.56,3.46s3.25,1.44,5.25,1.77c2,.34,4.06.51,6.18.51,5.25,0,9.31-.79,12.18-2.37,2.87-1.58,5-3.46,6.37-5.66,1.37-2.2,2.22-4.42,2.53-6.67.31-2.25.47-4.05.47-5.41v-8.95Z"/>
      <path class="cls-2" d="m329.51,33.28v16.05h-19.49v43.25c0,4.05.75,6.76,2.25,8.11,1.5,1.35,4.5,2.03,8.99,2.03,1.5,0,2.93-.06,4.31-.17,1.37-.11,2.68-.28,3.93-.51v18.58c-2.25.34-4.75.56-7.5.68-2.75.11-5.43.17-8.06.17-4.12,0-8.03-.25-11.71-.76-3.69-.51-6.93-1.49-9.74-2.96-2.81-1.46-5.03-3.55-6.65-6.25-1.62-2.7-2.44-6.25-2.44-10.64v-51.53h-16.12v-16.05h16.12V7.1h26.61v26.18h19.49Z"/>
      <path class="cls-2" d="m388.54,48.99c-4.25,0-7.81.87-10.68,2.62-2.88,1.75-5.22,4-7.03,6.76-1.81,2.76-3.09,5.8-3.84,9.12-.75,3.32-1.12,6.62-1.12,9.88s.38,6.36,1.12,9.63c.75,3.27,1.97,6.22,3.65,8.87,1.69,2.65,3.96,4.81,6.84,6.5,2.87,1.69,6.37,2.53,10.49,2.53,6.37,0,11.27-1.6,14.71-4.81,3.43-3.21,5.59-7.52,6.46-12.92h25.67c-1.75,11.6-6.75,20.44-14.99,26.52-8.24,6.08-18.8,9.12-31.67,9.12-7.25,0-13.9-1.1-19.96-3.29-6.06-2.2-11.21-5.26-15.46-9.21-4.25-3.94-7.56-8.64-9.93-14.11-2.37-5.46-3.56-11.46-3.56-17.99s1.09-13.03,3.28-18.84c2.18-5.8,5.4-10.81,9.65-15.04,4.25-4.22,9.43-7.52,15.55-9.88,6.12-2.36,13.12-3.55,20.99-3.55,5.75,0,11.27.68,16.58,2.03,5.31,1.35,10.05,3.41,14.24,6.17,4.18,2.76,7.59,6.19,10.21,10.3,2.62,4.11,4.12,8.98,4.5,14.61h-26.05c-1.75-10.02-8.31-15.04-19.68-15.04Z"/>
      <path class="cls-2" d="m476.42,0v45.44h.56c3.37-5.07,7.68-8.76,12.93-11.07,5.25-2.31,10.37-3.46,15.37-3.46,7.12,0,12.96.87,17.52,2.62,4.56,1.75,8.15,4.17,10.78,7.26,2.62,3.1,4.46,6.87,5.53,11.32,1.06,4.45,1.59,9.38,1.59,14.78v53.72h-26.61v-49.33c0-7.21-1.25-12.59-3.75-16.13-2.5-3.55-6.93-5.32-13.3-5.32-7.25,0-12.49,1.94-15.74,5.83-3.25,3.89-4.87,10.28-4.87,19.17v45.78h-26.61V0h26.61Z"/>
    </g>
    <g>
      <path class="cls-2" d="m71.76,135.5c9.95,0,18.42,1.09,25.41,3.28,6.98,2.18,12.67,5.07,17.05,8.65,4.38,3.59,7.58,7.67,9.58,12.26,2.01,4.59,3.01,9.35,3.01,14.28s-1,9.55-3.01,14.19c-2.01,4.65-5.2,8.76-9.58,12.35-4.38,3.59-10.07,6.47-17.05,8.65-6.99,2.18-15.45,3.28-25.41,3.28h-36.77v43H0v-119.94h71.76Zm-9.58,56.44c4.01,0,7.87-.22,11.59-.67,3.71-.45,6.98-1.31,9.81-2.6,2.82-1.29,5.09-3.11,6.8-5.46,1.71-2.35,2.56-5.43,2.56-9.24s-.86-6.89-2.56-9.24c-1.71-2.35-3.98-4.17-6.8-5.46-2.82-1.29-6.09-2.15-9.81-2.6-3.72-.45-7.58-.67-11.59-.67h-27.19v35.95h27.19Z"/>
      <path class="cls-2" d="m179.18,234.61c4.75,3.47,11.59,5.21,20.5,5.21,6.39,0,11.88-1.2,16.49-3.61,4.6-2.41,7.43-4.96,8.47-7.64h27.86c-4.46,10.42-11.29,17.86-20.5,22.34-9.21,4.48-20.36,6.72-33.43,6.72-9.06,0-17.24-1.09-24.51-3.28-7.28-2.18-13.45-5.29-18.5-9.32-5.05-4.03-8.95-8.85-11.7-14.45-2.75-5.6-4.12-11.76-4.12-18.48s1.41-12.54,4.23-18.14c2.82-5.6,6.83-10.44,12.03-14.53,5.2-4.09,11.4-7.31,18.61-9.66,7.2-2.35,15.19-3.53,23.96-3.53,9.81,0,18.35,1.43,25.63,4.28,7.28,2.86,13.26,6.69,17.94,11.51,4.68,4.82,8.06,10.3,10.14,16.46,2.08,6.16,2.82,12.6,2.23,19.32h-83.13c.45,7.73,3.04,13.33,7.8,16.8Zm35.77-45.69c-3.79-3.13-9.55-4.7-17.27-4.7-5.05,0-9.25.65-12.59,1.93-3.34,1.29-6.02,2.88-8.02,4.79-2.01,1.91-3.42,3.92-4.23,6.05-.82,2.13-1.3,4.03-1.45,5.71h51.48c-1.49-6.05-4.12-10.64-7.91-13.77Z"/>
      <path class="cls-2" d="m336.52,168.59v15.96h-23.18v43c0,4.03.89,6.72,2.67,8.06s5.35,2.02,10.7,2.02c1.78,0,3.49-.05,5.13-.17,1.63-.11,3.19-.28,4.68-.5v18.48c-2.67.34-5.65.56-8.92.67-3.27.11-6.46.17-9.58.17-4.9,0-9.55-.25-13.93-.76-4.38-.5-8.25-1.48-11.59-2.94-3.34-1.45-5.98-3.53-7.91-6.22-1.93-2.69-2.9-6.22-2.9-10.58v-51.23h-19.17v-15.96h19.17v-26.04h31.65v26.04h23.18Z"/>
    </g>
    <g>
      <path class="cls-1" d="m524.62,230.51c6.86,0,13.33,0,19.8,0,.61,0,1.29-.26,1.8-.05.73.3,1.33.91,1.98,1.39-.65.47-1.28,1.31-1.96,1.36-3.63.26-7.28.36-10.92.43-2.83.06-5.7.25-8.5-.08-3.39-.4-5.08.99-5.72,4.44,4.97.93,9.94,1.79,14.87,2.86.93.2,1.68,1.24,2.52,1.89-1.02.29-2.1.94-3.06.8-4.1-.61-8.18-1.39-12.24-2.22-4.76-.97-4.75-1.02-7.5,4.24,7.64,2.55,15.21,5.02,22.73,7.66,1.3.46,3.46,2.12,3.34,2.41-1.01,2.3-2.79.69-4.1.26-7.39-2.43-14.75-4.98-22.07-7.62-1.5-.54-2.47-.63-3.72.6-23.26,22.78-62.84,23.1-86.73.09-.7-.67-2.36-.98-3.32-.66-7.69,2.51-15.3,5.26-22.98,7.77-1.04.34-2.4-.27-3.61-.43.9-.75,1.67-1.84,2.71-2.21,6.77-2.4,13.59-4.62,20.39-6.94,1.02-.35,1.99-.86,3.01-1.31-2.91-4.79-2.9-4.75-7.83-3.77-3.97.79-7.94,1.57-11.94,2.15-.94.14-2.01-.58-3.01-.9.87-.63,1.67-1.63,2.63-1.84,4.84-1.03,9.71-1.86,14.58-2.76-.77-4.17-1.23-4.48-5.03-4.49-6.27-.02-12.55-.09-18.82-.31-1.01-.04-1.98-1.02-2.97-1.56,1.1-.41,2.2-1.15,3.3-1.16,5.77-.04,11.54.12,17.3.18.87,0,1.75-.15,2.96-.26-.7-2.26-1.4-4.24-1.92-6.26-2.44-9.54-2.17-19.01.57-28.48.45-1.56.38-3.6-.24-5.09-6.46-15.48-7.27-31.18-2.28-47.18.39-1.24.89-2.44,1.42-3.88,7.82,1.63,15.11,4.3,21.83,8.24,5.05,2.95,9.67,6.61,14.6,9.78,1.09.7,2.79,1.22,3.95.9,12.12-3.33,24.16-3.34,36.28,0,1.16.32,2.98-.15,3.94-.93,10.64-8.78,22.63-14.78,36.84-18.18,1.25,5.4,2.83,10.6,3.61,15.92,1.81,12.31-.16,24.18-5.04,35.61-.47,1.11-.82,2.6-.48,3.67,3.7,11.61,3.55,23.1-.62,34.55-.13.36-.18.74-.33,1.38Zm-97.71,15.65c21.85,23.11,62.79,22.16,83.23-.05-3.37-1.88-6.78-3.63-10.01-5.67-.96-.61-1.43-1.99-2.13-3.02,1.15.18,2.42.1,3.43.58,2.64,1.27,5.12,2.86,7.73,4.2,3.89,1.99,4.11,1.87,6.29-2.38-4.78-1.6-9.57-3.12-14.28-4.85-.89-.33-1.48-1.49-2.21-2.27,1.06-.12,2.21-.58,3.16-.32,4.27,1.22,8.47,2.72,12.73,3.97,3.28.96,3.77.54,4.34-2.86-5.38-.91-10.77-1.74-16.11-2.8-.86-.17-1.51-1.36-2.26-2.07.97-.22,1.98-.73,2.9-.61,5.01.65,10.01,1.42,14.99,2.23,1.94.31,2.88-.37,3.56-2.24,3.93-10.88,4.01-21.76.48-32.75-.41-1.29-.42-3.03.11-4.24,3.17-7.2,5.22-14.67,5.81-22.51.65-8.66-.51-17.08-3.47-25.5-1.42.38-2.59.65-3.72,1.01-11.14,3.54-21.18,9.07-29.96,16.79-1.34,1.18-2.44,1.63-4.27,1.04-12.41-4.03-24.88-3.98-37.31-.05-1.8.57-2.92.26-4.28-.95-6.48-5.75-13.73-10.36-21.72-13.72-3.85-1.62-7.87-2.87-11.95-4.34-.46,1.32-.75,2.07-.98,2.83-4.36,15.06-3.54,29.82,2.86,44.15,1.03,2.31,1.05,4.19.27,6.56-3.35,10.23-3.08,20.47.32,30.7.84,2.54,1.97,3.67,4.73,3.17,4.67-.85,9.38-1.55,14.09-2.15.98-.12,2.05.48,3.08.74-.83.67-1.58,1.75-2.5,1.93-5.33,1.05-10.7,1.89-16.22,2.83.67,2.37,1.51,4,4.57,2.88,4.36-1.6,8.82-2.95,13.27-4.26.77-.23,1.75.29,2.64.47-.51.73-.88,1.85-1.57,2.12-3.3,1.27-6.68,2.33-10.04,3.43-1.66.55-3.34,1.03-5.12,1.57,2.8,4.31,2.83,4.36,6.72,2.35,2.69-1.39,5.25-3.06,7.97-4.39.86-.42,2.07-.12,3.13-.16-.51.85-.82,2.02-1.57,2.48-3.44,2.11-7,4.01-10.73,6.11Z"/>
      <path class="cls-3" d="m426.91,246.16c3.73-2.1,7.29-4,10.73-6.11.75-.46,1.06-1.63,1.57-2.48-1.05.03-2.26-.26-3.13.16-2.72,1.32-5.28,2.99-7.97,4.39-3.89,2.01-3.92,1.96-6.72-2.35,1.77-.54,3.45-1.03,5.12-1.57,3.36-1.1,6.74-2.16,10.04-3.43.69-.27,1.05-1.39,1.57-2.12-.89-.18-1.87-.69-2.64-.47-4.46,1.31-8.91,2.66-13.27,4.26-3.07,1.12-3.9-.51-4.57-2.88,5.53-.94,10.9-1.78,16.22-2.83.92-.18,1.67-1.26,2.5-1.93-1.03-.27-2.1-.87-3.08-.74-4.71.6-9.41,1.31-14.09,2.15-2.76.5-3.89-.63-4.73-3.17-3.4-10.23-3.67-20.47-.32-30.7.78-2.37.76-4.25-.27-6.56-6.4-14.33-7.22-29.09-2.86-44.15.22-.76.52-1.51.98-2.83,4.09,1.47,8.1,2.72,11.95,4.34,7.99,3.36,15.24,7.97,21.72,13.72,1.37,1.21,2.49,1.52,4.28.95,12.42-3.94,24.9-3.98,37.31.05,1.83.6,2.94.14,4.27-1.04,8.78-7.73,18.82-13.26,29.96-16.79,1.13-.36,2.3-.63,3.72-1.01,2.97,8.42,4.12,16.84,3.47,25.5-.59,7.84-2.64,15.31-5.81,22.51-.53,1.21-.52,2.95-.11,4.24,3.53,10.99,3.45,21.87-.48,32.75-.67,1.87-1.62,2.56-3.56,2.24-4.99-.81-9.98-1.58-14.99-2.23-.93-.12-1.93.39-2.9.61.75.72,1.41,1.9,2.26,2.07,5.35,1.06,10.74,1.9,16.11,2.8-.57,3.4-1.07,3.82-4.34,2.86-4.27-1.25-8.46-2.75-12.73-3.97-.95-.27-2.1.19-3.16.32.73.78,1.32,1.94,2.21,2.27,4.71,1.73,9.5,3.25,14.28,4.85-2.19,4.26-2.4,4.37-6.29,2.38-2.61-1.33-5.09-2.92-7.73-4.2-1-.48-2.28-.4-3.43-.58.7,1.03,1.17,2.41,2.13,3.02,3.23,2.04,6.64,3.79,10.01,5.67-20.44,22.21-61.37,23.16-83.23.05Zm14.04-48.35c-3.32,1.07-6.66,2.09-9.97,3.22-1.84.63-2.24,1.81-1.57,3.77,3.91,11.34,18.43,15.79,28.02,8.54,1.36-1.03,1.65-1.93,1.07-3.56-2.42-6.82-9.28-11.38-17.56-11.98Zm55.12-.09c-8.2.74-14.98,5.16-17.44,11.88-.53,1.44-.62,2.49.83,3.64,9.54,7.52,24.76,2.8,28.32-8.81.49-1.59.22-2.61-1.26-3.14-3.47-1.25-6.97-2.39-10.46-3.57Zm-34.62,29.74c.59,3.5,2.22,6.11,4.6,8.43,1.83,1.78,3.28,1.6,4.69-.29,1.83-2.45,3.6-4.96,5.64-7.78-5.35-1.86-10.01-1.79-14.93-.36Z"/>
      <path class="cls-1" d="m440.95,197.81c8.28.59,15.14,5.16,17.56,11.98.58,1.63.28,2.53-1.07,3.56-9.58,7.24-24.11,2.8-28.02-8.54-.67-1.96-.27-3.13,1.57-3.77,3.3-1.13,6.64-2.16,9.97-3.22Zm-8.44,6.03c2.35,8.2,11.83,12.38,20.06,8.85,3.46-1.48,3.63-2.16,1.38-5.28-4.67-6.47-14.52-8.11-21.43-3.57Z"/>
      <path class="cls-1" d="m496.07,197.72c3.49,1.18,6.99,2.32,10.46,3.57,1.48.53,1.75,1.55,1.26,3.14-3.56,11.61-18.78,16.33-28.32,8.81-1.45-1.15-1.36-2.2-.83-3.64,2.46-6.72,9.24-11.14,17.44-11.88Zm8.47,6.13c-8.2-5.8-21.54-1.08-22.86,7.1,8.37,6.08,20.28,2.39,22.86-7.1Z"/>
      <path class="cls-1" d="m461.45,227.46c4.92-1.43,9.59-1.49,14.93.36-2.04,2.82-3.81,5.32-5.64,7.78-1.42,1.89-2.87,2.07-4.69.29-2.38-2.32-4.01-4.93-4.6-8.43Zm3.22,2.01c1.47,1.9,2.41,3.11,3.62,4.66,1.24-1.67,2.2-2.95,3.47-4.66h-7.09Z"/>
      <path class="cls-3" d="m432.51,203.84c6.91-4.54,16.76-2.9,21.43,3.57,2.26,3.12,2.08,3.8-1.38,5.28-8.23,3.53-17.71-.66-20.06-8.85Z"/>
      <path class="cls-3" d="m504.54,203.85c-2.58,9.48-14.49,13.18-22.86,7.1,1.31-8.18,14.66-12.9,22.86-7.1Z"/>
      <path class="cls-3" d="m464.67,229.47h7.09c-1.28,1.72-2.23,3-3.47,4.66-1.21-1.56-2.15-2.77-3.62-4.66Z"/>
    </g>
  </g>
</svg>