<?xml version="1.0" encoding="UTF-8"?>
<svg id="Camada_2" data-name="Camada 2" xmlns="http://www.w3.org/2000/svg" viewBox="0 0 600.71 244.3">
  <defs>
    <style>
      .cls-1 {
        letter-spacing: -.02em;
      }

      .cls-2 {
        fill: #1d1d1b;
        font-family: HelveticaNeue-Bold, 'Helvetica Neue';
        font-size: 103.32px;
        font-weight: 700;
      }

      .cls-3 {
        stroke-width: 0px;
      }
    </style>
  </defs>
  <g id="Camada_1-2" data-name="Camada 1">
    <text class="cls-2" transform="translate(8.93 88.54) scale(.95 1)"><tspan x="0" y="0">Não Comp</tspan><tspan class="cls-1" x="524.14" y="0">r</tspan><tspan x="562.47" y="0">e</tspan></text>
    <text class="cls-2" transform="translate(.85 194.6) scale(1.38 1)"><tspan x="0" y="0">Adote!</tspan></text>
    <g>
      <path class="cls-3" d="m561.76,181.54c5.54,0,10.76,0,15.98,0,.49,0,1.04-.2,1.45-.04.59.23,1.07.71,1.6,1.08-.53.36-1.03,1.01-1.58,1.05-2.93.2-5.88.28-8.82.33-2.29.04-4.6.19-6.86-.06-2.74-.31-4.1.76-4.62,3.43,4.01.72,8.02,1.38,12,2.21.75.16,1.36.96,2.03,1.46-.83.22-1.7.73-2.47.62-3.31-.47-6.6-1.07-9.88-1.71-3.84-.75-3.84-.79-6.06,3.28,6.17,1.97,12.28,3.88,18.35,5.92,1.05.35,2.79,1.64,2.69,1.86-.81,1.78-2.25.54-3.31.2-5.97-1.88-11.91-3.85-17.82-5.89-1.21-.42-2-.49-3.01.46-18.78,17.61-50.74,17.86-70.03.07-.57-.52-1.91-.75-2.68-.51-6.21,1.94-12.35,4.07-18.56,6.01-.84.26-1.94-.21-2.91-.34.72-.58,1.35-1.42,2.18-1.71,5.46-1.85,10.98-3.57,16.46-5.36.83-.27,1.61-.67,2.43-1.01-2.35-3.7-2.34-3.67-6.32-2.91-3.2.61-6.41,1.22-9.64,1.66-.76.1-1.62-.45-2.43-.69.7-.49,1.35-1.26,2.13-1.42,3.9-.8,7.84-1.44,11.77-2.13-.62-3.23-.99-3.46-4.06-3.47-5.07-.01-10.13-.07-15.2-.24-.82-.03-1.6-.79-2.4-1.21.89-.31,1.77-.89,2.66-.9,4.66-.03,9.32.1,13.97.14.71,0,1.41-.12,2.39-.2-.56-1.75-1.13-3.27-1.55-4.84-1.97-7.37-1.75-14.69.46-22.01.36-1.2.31-2.78-.2-3.93-5.22-11.96-5.87-24.1-1.84-36.47.31-.96.72-1.89,1.15-3,6.31,1.26,12.2,3.33,17.63,6.37,4.07,2.28,7.81,5.11,11.79,7.56.88.54,2.25.94,3.19.7,9.78-2.58,19.51-2.58,29.29,0,.94.25,2.41-.11,3.18-.72,8.59-6.79,18.27-11.42,29.75-14.06,1.01,4.18,2.29,8.2,2.92,12.3,1.46,9.52-.13,18.69-4.07,27.52-.38.86-.66,2.01-.38,2.84,2.99,8.97,2.86,17.86-.5,26.7-.1.28-.14.57-.26,1.07Zm-78.9,12.1c17.64,17.86,50.7,17.13,67.2-.04-2.72-1.45-5.47-2.81-8.08-4.38-.78-.47-1.16-1.54-1.72-2.33.93.14,1.96.08,2.77.45,2.13.98,4.13,2.21,6.24,3.24,3.14,1.54,3.32,1.45,5.08-1.84-3.86-1.24-7.72-2.41-11.53-3.75-.72-.25-1.2-1.15-1.79-1.75.85-.1,1.79-.45,2.55-.24,3.45.94,6.84,2.1,10.28,3.07,2.65.74,3.04.42,3.51-2.21-4.34-.7-8.69-1.35-13.01-2.17-.69-.13-1.22-1.05-1.83-1.6.78-.17,1.6-.56,2.35-.47,4.05.5,8.08,1.1,12.11,1.72,1.56.24,2.33-.29,2.87-1.73,3.17-8.41,3.24-16.82.39-25.31-.33-.99-.34-2.34.09-3.28,2.56-5.57,4.21-11.34,4.69-17.4.52-6.7-.41-13.21-2.8-19.71-1.15.3-2.09.5-3,.78-8.99,2.73-17.1,7.01-24.19,12.98-1.08.91-1.97,1.26-3.45.8-10.02-3.11-20.09-3.08-30.12-.04-1.45.44-2.35.2-3.46-.73-5.23-4.44-11.09-8.01-17.54-10.6-3.11-1.25-6.35-2.22-9.65-3.35-.37,1.02-.61,1.6-.79,2.19-3.52,11.64-2.86,23.05,2.31,34.13.83,1.79.84,3.24.22,5.07-2.7,7.91-2.48,15.82.26,23.73.68,1.96,1.59,2.84,3.82,2.45,3.77-.65,7.57-1.2,11.37-1.66.79-.1,1.66.37,2.49.57-.67.51-1.27,1.35-2.02,1.49-4.3.81-8.64,1.46-13.1,2.19.54,1.83,1.22,3.09,3.69,2.22,3.52-1.23,7.12-2.28,10.72-3.29.62-.17,1.42.23,2.13.36-.42.56-.71,1.43-1.27,1.64-2.66.98-5.39,1.8-8.11,2.65-1.34.42-2.7.8-4.13,1.22,2.26,3.33,2.28,3.37,5.43,1.81,2.17-1.08,4.24-2.37,6.44-3.39.7-.32,1.68-.1,2.52-.12-.41.65-.66,1.56-1.26,1.92-2.78,1.63-5.66,3.1-8.66,4.72Z"/>
      <path class="cls-3" d="m494.2,156.26c6.68.46,12.22,3.99,14.18,9.26.47,1.26.23,1.96-.87,2.75-7.74,5.6-19.47,2.17-22.62-6.6-.54-1.51-.22-2.42,1.26-2.91,2.67-.88,5.36-1.67,8.05-2.49Zm-6.81,4.66c1.89,6.34,9.55,9.57,16.19,6.84,2.79-1.15,2.93-1.67,1.11-4.08-3.77-5-11.72-6.27-17.31-2.76Z"/>
      <path class="cls-3" d="m538.71,156.2c2.82.91,5.65,1.8,8.44,2.76,1.19.41,1.41,1.2,1.02,2.43-2.88,8.97-15.17,12.62-22.87,6.81-1.17-.89-1.1-1.7-.67-2.81,1.99-5.19,7.46-8.61,14.08-9.18Zm6.84,4.74c-6.62-4.48-17.39-.84-18.46,5.48,6.76,4.7,16.37,1.85,18.46-5.48Z"/>
      <path class="cls-3" d="m510.75,179.18c3.97-1.1,7.74-1.15,12.06.28-1.65,2.18-3.07,4.11-4.55,6.01-1.14,1.46-2.31,1.6-3.79.22-1.92-1.79-3.24-3.81-3.72-6.52Zm2.6,1.56c1.19,1.47,1.94,2.4,2.92,3.61,1-1.29,1.77-2.28,2.8-3.61h-5.73Z"/>
    </g>
  </g>
</svg>